<?xml version="1.0" standalone="no"?>
<!DOCTYPE svg PUBLIC "-//W3C//DTD SVG 20010904//EN"
 "http://www.w3.org/TR/2001/REC-SVG-20010904/DTD/svg10.dtd">
<svg version="1.0" xmlns="http://www.w3.org/2000/svg"
 width="385.000000pt" height="385.000000pt" viewBox="0 0 385.000000 385.000000"
 preserveAspectRatio="xMidYMid meet">
<metadata>
Created by potrace 1.14, written by Peter Selinger 2001-2017
</metadata>
<g transform="translate(0.000000,385.000000) scale(0.100000,-0.100000)"
fill="#000000" stroke="none">
<path d="M1769 3816 c-2 -3 -33 -7 -69 -11 -203 -20 -526 -126 -695 -228 -366
-220 -602 -469 -773 -813 -83 -165 -159 -398 -178 -539 -2 -16 -7 -52 -11 -80
-10 -66 -10 -383 0 -465 23 -188 93 -424 177 -595 100 -204 209 -356 374 -521
199 -199 418 -340 678 -438 101 -37 261 -81 338 -91 25 -3 52 -8 60 -10 85
-22 412 -22 545 0 426 72 768 245 1065 536 81 79 215 243 255 311 6 9 31 52
56 95 215 364 298 820 228 1253 -105 647 -554 1212 -1155 1455 -108 43 -286
99 -354 110 -19 3 -48 8 -64 11 -16 4 -43 8 -60 10 -45 6 -412 14 -417 10z"/>
</g>
</svg>
